<?xml version="1.0" encoding="utf-8"?>
<?xml-stylesheet type="text/xsl" href="rss1.xsl"?>
<rss version="2.0" xmlns:atom="http://www.w3.org/2005/Atom" xmlns:content="http://purl.org/rss/1.0/modules/content/" xmlns:dc="http://purl.org/dc/elements/1.1/" xmlns:media="http://search.yahoo.com/mrss/">
<channel>
 <title>Getty</title>
 <link>http://www.gettyimg.com/</link>
 <atom:link href="http://www.gettyimg.com/" rel="self" type="application/rss+xml" />

 
                <item>
                <title><![CDATA[【Cinema Center】MOVIE - Spy.Kids.2001.1080p.NF.WEB-DL.DDP5.1.x264-Samuel]]></title>
                <link><![CDATA[https://sharemania.us/threads/spy-kids-2001-1080p-nf-web-dl-ddp5-1-x264-samuel.232165/]]></link>
                <description><![CDATA[<article>
<blockquote class="messageText SelectQuoteContainer ugc baseHtml">
<div style="text-align: center"><b><span style="font-size: 26px">Spy Kids</span></b><br>
<img src="https://i.imgur.com/y2DzmK5.jpg" class="bbCodeImage LbImage" alt="[​IMG]" data-url="https://i.imgur.com/y2DzmK5.jpg" style=""><br>
<a href="https://i.imgur.com/OagfgTF.jpg" target="_blank" class="externalLink" rel="nofollow"><b>Alternate Artwork 1</b></a> | <a href="https://i.imgur.com/sK0UX8g.jpg" target="_blank" class="externalLink" rel="nofollow"><b>Alternate Artwork 2</b></a> | <a href="https://i.imgur.com/Ezuivj8.jpg" target="_blank" class="externalLink" rel="nofollow"><b>Alternate Artwork 3</b></a> | <a href="https://i.imgur.com/a5zLPGi.jpg" target="_blank" class="externalLink" rel="nofollow"><b>Alternate Artwork 4</b></a> | <a href="https://i.imgur.com/LeJ9A0d.jpg" target="_blank" class="externalLink" rel="nofollow"><b>Alternate Artwork 5</b></a> | <a href="https://i.imgur.com/LfrBY6Y.jpg" target="_blank" class="externalLink" rel="nofollow"><b>Alternate Artwork 6</b></a> | <a href="https://i.imgur.com/xWtys08.jpg" target="_blank" class="externalLink" rel="nofollow"><b>Alternate Artwork 7</b></a> | <a href="https://i.imgur.com/hYqQzI3.jpg" target="_blank" class="externalLink" rel="nofollow"><b>Alternate Artwork 8</b></a> | <a href="https://i.imgur.com/C0Rs11y.jpg" target="_blank" class="externalLink" rel="nofollow"><b>Alternate Artwork 9</b></a> | <a href="https://i.imgur.com/Agud53n.jpg" target="_blank" class="externalLink" rel="nofollow"><b>Poster 1</b></a> | <a href="https://i.imgur.com/UgptqId.jpg" target="_blank" class="externalLink" rel="nofollow"><b>Poster 2</b></a> | <a href="https://i.imgur.com/gbYMT4b.jpg" target="_blank" class="externalLink" rel="nofollow"><b>Poster 3</b></a> | <a href="https://i.imgur.com/2NWZcDi.jpg" target="_blank" class="externalLink" rel="nofollow"><b>Poster 4</b></a> | <a href="https://i.imgur.com/M1RJAm5.jpg" target="_blank" class="externalLink" rel="nofollow"><b>Poster 5</b></a> | <a href="https://i.imgur.com/cKlm7XH.jpg" target="_blank" class="externalLink" rel="nofollow"><b>Poster 6</b></a><br>
<br>
2001 • 1h 28m • HD • <img src="https://i.imgur.com/he9ZqFh.png" class="bbCodeImage LbImage" alt="[​IMG]" data-url="https://i.imgur.com/he9ZqFh.png" style=""> • PG<br>
<br>
<div class="bbCodeBlock bbCodeQuote">
<aside>
<blockquote class="quoteContainer"><div class="quote"><b><span style="font-size: 15px"><span style="font-family: 'Arial'">Description</span></span></b><br>
The mission: Save their parents and stop an evil mastermind. To pull it off, these siblings must gear up with gadgets, hop the globe — and get along.</div><div class="quoteExpand">Click to expand...</div></blockquote>
</aside>
</div>
<div class="bbCodeBlock bbCodeQuote">
<aside>
<blockquote class="quoteContainer"><div class="quote"><span style="font-family: 'Arial'"><span style="font-size: 15px"><b>General Information</b></span></span><br>
<b>Cast:</b> Antonio Banderas, Carla Gugino, Alan Cumming, more<br>
<b>Genres:</b> Family Features, Children &amp; Family Films, Comedy Films<br>
<b>The film is:</b> Exciting</div><div class="quoteExpand">Click to expand...</div></blockquote>
</aside>
</div>
<div class="bbCodeBlock bbCodeQuote">
<aside>
<blockquote class="quoteContainer"><div class="quote"><b><span style="font-size: 15px">About</span> <span style="font-size: 18px">Spy Kids</span><br>
Director:</b> Robert Rodriguez<br>
<b>Cast:</b> Antonio Banderas, Carla Gugino, Alan Cumming, Teri Hatcher, Cheech Marin, Danny Trejo, Robert Patrick, Tony Shalhoub, Alexa PenaVega, Daryl Sabara<br>
<b>Writer:</b> Robert Rodriguez<br>
<b>Genres:</b> Family Features, Children &amp; Family Films, Comedy Films, Spy Films, US Movies<br>
<b>This film is:</b> Exciting<br>
<b>Maturity rating:</b> PG action sequences</div><div class="quoteExpand">Click to expand...</div></blockquote>
</aside>
</div>
<div class="bbCodeBlock bbCodeQuote">
<aside>
<blockquote class="quoteContainer"><div class="quote"><b><span style="font-size: 15px">Source</span></b><br>
<img src="https://i.imgur.com/rmTdFr3.png" class="bbCodeImage LbImage" alt="[​IMG]" data-url="https://i.imgur.com/rmTdFr3.png" style=""></div><div class="quoteExpand">Click to expand...</div></blockquote>
</aside>
</div>
<div class="bbCodeBlock bbCodeQuote">
<aside>
<blockquote class="quoteContainer"><div class="quote"><b><span style="font-size: 15px">Release Name</span></b><br>
Spy.Kids.2001.1080p.NF.WEB-DL.DDP5.1.x264-Samuel</div><div class="quoteExpand">Click to expand...</div></blockquote>
</aside>
</div>
<div class="ToggleTriggerAnchor bbCodeSpoilerContainer">
<button type="button" class="button bbCodeSpoilerButton ToggleTrigger Tooltip JsOnly" data-target="> .SpoilerTarget"><span>Spoiler: <span class="SpoilerTitle">Media Information</span></span></button>
<div class="SpoilerTarget bbCodeSpoilerText">General<br>
Complete name : Spy.Kids.2001.1080p.NF.WEB-DL.DDP5.1.x264-Samuel.mkv<br>
Format : Matroska<br>
Format version : Version 4<br>
File size : 6.32 GiB<br>
Duration : 1 h 28 min<br>
Overall bit rate mode : Variable<br>
Overall bit rate : 10.2 Mb/s<br>
Frame rate : 23.976 FPS<br>
Encoded date : 2023-11-13 07:15:33 UTC<br>
Writing application : mkvmerge v72.0.0 ('Minuano (Six-eight)') 64-bit<br>
Writing library : libebml v1.4.4 + libmatroska v1.7.1<br>
<br>
Video<br>
ID : 1<br>
Format : AVC<br>
Format/Info : Advanced Video Codec<br>
Format profile : Main@L4<br>
Format settings : CABAC / 3 Ref Frames<br>
Format settings, CABAC : Yes<br>
Format settings, Reference frames : 3 frames<br>
Codec ID : V_MPEG4/ISO/AVC<br>
Duration : 1 h 28 min<br>
Bit rate mode : Variable<br>
Bit rate : 5 800 kb/s<br>
Maximum bit rate : 8 700 kb/s<br>
Width : 1 920 pixels<br>
Height : 1 080 pixels<br>
Display aspect ratio : 16:9<br>
Frame rate mode : Constant<br>
Frame rate : 23.976 (24000/1001) FPS<br>
Color space : YUV<br>
Chroma subsampling : 4:2:0<br>
Bit depth : 8 bits<br>
Scan type : Progressive<br>
Bits/(Pixel*Frame) : 0.117<br>
Stream size : 3.55 GiB (56%)<br>
Writing library : x264 core 148 r2727 7d026e8<br>
Encoding settings : cabac=1 / ref=3 / deblock=1:0:0 / analyse=0x1:0x111 / me=umh / subme=10 / psy=1 / psy_rd=1.00:0.00 / mixed_ref=1 / me_range=24 / chroma_me=1 / trellis=2 / 8x8dct=0 / cqm=0 / deadzone=21,11 / fast_pskip=1 / chroma_qp_offset=-2 / threads=6 / lookahead_threads=1 / sliced_threads=0 / nr=0 / decimate=1 / interlaced=0 / bluray_compat=0 / stitchable=1 / constrained_intra=0 / bframes=2 / b_pyramid=0 / b_adapt=2 / b_bias=0 / direct=3 / weightb=1 / open_gop=0 / weightp=2 / keyint=240 / keyint_min=121 / scenecut=0 / intra_refresh=0 / rc_lookahead=48 / rc=2pass / mbtree=1 / bitrate=5800 / ratetol=1.0 / qcomp=0.50 / qpmin=6 / qpmax=51 / qpstep=4 / cplxblur=20.0 / qblur=0.5 / vbv_maxrate=8700 / vbv_bufsize=11600 / nal_hrd=vbr / filler=0 / ip_ratio=1.40 / aq=1:1.00<br>
Default : Yes<br>
Forced : No<br>
<br>
Audio #1<br>
ID : 2<br>
Format : E-AC-3<br>
Format/Info : Enhanced AC-3<br>
Commercial name : Dolby Digital Plus<br>
Codec ID : A_EAC3<br>
Duration : 1 h 28 min<br>
Bit rate mode : Constant<br>
Bit rate : 640 kb/s<br>
Channel(s) : 6 channels<br>
Channel layout : L R C LFE Ls Rs<br>
Sampling rate : 48.0 kHz<br>
Frame rate : 31.250 FPS (1536 SPF)<br>
Compression mode : Lossy<br>
Stream size : 405 MiB (6%)<br>
Language : German<br>
Service kind : Complete Main<br>
Default : Yes<br>
Forced : No<br>
<br>
Audio #2<br>
ID : 3<br>
Format : E-AC-3<br>
Format/Info : Enhanced AC-3<br>
Commercial name : Dolby Digital Plus<br>
Codec ID : A_EAC3<br>
Duration : 1 h 28 min<br>
Bit rate mode : Constant<br>
Bit rate : 640 kb/s<br>
Channel(s) : 6 channels<br>
Channel layout : L R C LFE Ls Rs<br>
Sampling rate : 48.0 kHz<br>
Frame rate : 31.250 FPS (1536 SPF)<br>
Compression mode : Lossy<br>
Stream size : 405 MiB (6%)<br>
Language : English<br>
Service kind : Complete Main<br>
Default : No<br>
Forced : No<br>
<br>
Audio #3<br>
ID : 4<br>
Format : E-AC-3<br>
Format/Info : Enhanced AC-3<br>
Commercial name : Dolby Digital Plus<br>
Codec ID : A_EAC3<br>
Duration : 1 h 28 min<br>
Bit rate mode : Constant<br>
Bit rate : 640 kb/s<br>
Channel(s) : 6 channels<br>
Channel layout : L R C LFE Ls Rs<br>
Sampling rate : 48.0 kHz<br>
Frame rate : 31.250 FPS (1536 SPF)<br>
Compression mode : Lossy<br>
Stream size : 405 MiB (6%)<br>
Title : Latin American<br>
Language : Spanish<br>
Service kind : Complete Main<br>
Default : No<br>
Forced : No<br>
<br>
Audio #4<br>
ID : 5<br>
Format : E-AC-3<br>
Format/Info : Enhanced AC-3<br>
Commercial name : Dolby Digital Plus<br>
Codec ID : A_EAC3<br>
Duration : 1 h 28 min<br>
Bit rate mode : Constant<br>
Bit rate : 640 kb/s<br>
Channel(s) : 6 channels<br>
Channel layout : L R C LFE Ls Rs<br>
Sampling rate : 48.0 kHz<br>
Frame rate : 31.250 FPS (1536 SPF)<br>
Compression mode : Lossy<br>
Stream size : 405 MiB (6%)<br>
Title : European<br>
Language : Spanish<br>
Service kind : Complete Main<br>
Default : No<br>
Forced : No<br>
<br>
Audio #5<br>
ID : 6<br>
Format : E-AC-3<br>
Format/Info : Enhanced AC-3<br>
Commercial name : Dolby Digital Plus<br>
Codec ID : A_EAC3<br>
Duration : 1 h 28 min<br>
Bit rate mode : Constant<br>
Bit rate : 128 kb/s<br>
Channel(s) : 2 channels<br>
Channel layout : L R<br>
Sampling rate : 48.0 kHz<br>
Frame rate : 31.250 FPS (1536 SPF)<br>
Compression mode : Lossy<br>
Stream size : 81.0 MiB (1%)<br>
Language : French<br>
Service kind : Complete Main<br>
Default : No<br>
Forced : No<br>
<br>
Audio #6<br>
ID : 7<br>
Format : E-AC-3<br>
Format/Info : Enhanced AC-3<br>
Commercial name : Dolby Digital Plus<br>
Codec ID : A_EAC3<br>
Duration : 1 h 28 min<br>
Bit rate mode : Constant<br>
Bit rate : 640 kb/s<br>
Channel(s) : 6 channels<br>
Channel layout : L R C LFE Ls Rs<br>
Sampling rate : 48.0 kHz<br>
Frame rate : 31.250 FPS (1536 SPF)<br>
Compression mode : Lossy<br>
Stream size : 405 MiB (6%)<br>
Language : Italian<br>
Service kind : Complete Main<br>
Default : No<br>
Forced : No<br>
<br>
Audio #7<br>
ID : 8<br>
Format : E-AC-3<br>
Format/Info : Enhanced AC-3<br>
Commercial name : Dolby Digital Plus<br>
Codec ID : A_EAC3<br>
Duration : 1 h 28 min<br>
Bit rate mode : Constant<br>
Bit rate : 128 kb/s<br>
Channel(s) : 2 channels<br>
Channel layout : L R<br>
Sampling rate : 48.0 kHz<br>
Frame rate : 31.250 FPS (1536 SPF)<br>
Compression mode : Lossy<br>
Stream size : 81.0 MiB (1%)<br>
Language : Japanese<br>
Service kind : Complete Main<br>
Default : No<br>
Forced : No<br>
<br>
Audio #8<br>
ID : 9<br>
Format : E-AC-3<br>
Format/Info : Enhanced AC-3<br>
Commercial name : Dolby Digital Plus<br>
Codec ID : A_EAC3<br>
Duration : 1 h 28 min<br>
Bit rate mode : Constant<br>
Bit rate : 128 kb/s<br>
Channel(s) : 2 channels<br>
Channel layout : L R<br>
Sampling rate : 48.0 kHz<br>
Frame rate : 31.250 FPS (1536 SPF)<br>
Compression mode : Lossy<br>
Stream size : 81.0 MiB (1%)<br>
Language : Polish<br>
Service kind : Complete Main<br>
Default : No<br>
Forced : No<br>
<br>
Audio #9<br>
ID : 10<br>
Format : E-AC-3<br>
Format/Info : Enhanced AC-3<br>
Commercial name : Dolby Digital Plus<br>
Codec ID : A_EAC3<br>
Duration : 1 h 28 min<br>
Bit rate mode : Constant<br>
Bit rate : 640 kb/s<br>
Channel(s) : 6 channels<br>
Channel layout : L R C LFE Ls Rs<br>
Sampling rate : 48.0 kHz<br>
Frame rate : 31.250 FPS (1536 SPF)<br>
Compression mode : Lossy<br>
Stream size : 405 MiB (6%)<br>
Title : Brazilian<br>
Language : Portuguese<br>
Service kind : Complete Main<br>
Default : No<br>
Forced : No<br>
<br>
Audio #10<br>
ID : 11<br>
Format : E-AC-3<br>
Format/Info : Enhanced AC-3<br>
Commercial name : Dolby Digital Plus<br>
Codec ID : A_EAC3<br>
Duration : 1 h 28 min<br>
Bit rate mode : Constant<br>
Bit rate : 128 kb/s<br>
Channel(s) : 2 channels<br>
Channel layout : L R<br>
Sampling rate : 48.0 kHz<br>
Frame rate : 31.250 FPS (1536 SPF)<br>
Compression mode : Lossy<br>
Stream size : 81.0 MiB (1%)<br>
Language : Russian<br>
Service kind : Complete Main<br>
Default : No<br>
Forced : No<br>
<br>
Audio #11<br>
ID : 12<br>
Format : E-AC-3<br>
Format/Info : Enhanced AC-3<br>
Commercial name : Dolby Digital Plus<br>
Codec ID : A_EAC3<br>
Duration : 1 h 28 min<br>
Bit rate mode : Constant<br>
Bit rate : 128 kb/s<br>
Channel(s) : 2 channels<br>
Channel layout : L R<br>
Sampling rate : 48.0 kHz<br>
Frame rate : 31.250 FPS (1536 SPF)<br>
Compression mode : Lossy<br>
Stream size : 81.0 MiB (1%)<br>
Language : Turkish<br>
Service kind : Complete Main<br>
Default : No<br>
Forced : No<br>
<br>
Text #1<br>
ID : 13<br>
Format : UTF-8<br>
Codec ID : S_TEXT/UTF8<br>
Codec ID/Info : UTF-8 Plain Text<br>
Duration : 1 h 20 min<br>
Bit rate : 72 b/s<br>
Frame rate : 0.295 FPS<br>
Count of elements : 1430<br>
Stream size : 43.2 KiB (0%)<br>
Title : SDH<br>
Language : English<br>
Default : No<br>
Forced : No<br>
<br>
Text #2<br>
ID : 14<br>
Format : UTF-8<br>
Codec ID : S_TEXT/UTF8<br>
Codec ID/Info : UTF-8 Plain Text<br>
Duration : 1 h 20 min<br>
Bit rate : 96 b/s<br>
Frame rate : 0.189 FPS<br>
Count of elements : 917<br>
Stream size : 56.9 KiB (0%)<br>
Language : Arabic<br>
Default : No<br>
Forced : No<br>
<br>
Text #3<br>
ID : 15<br>
Format : UTF-8<br>
Codec ID : S_TEXT/UTF8<br>
Codec ID/Info : UTF-8 Plain Text<br>
Duration : 1 h 20 min<br>
Bit rate : 57 b/s<br>
Frame rate : 0.222 FPS<br>
Count of elements : 1075<br>
Stream size : 34.1 KiB (0%)<br>
Language : Czech<br>
Default : No<br>
Forced : No<br>
<br>
Text #4<br>
ID : 16<br>
Format : UTF-8<br>
Codec ID : S_TEXT/UTF8<br>
Codec ID/Info : UTF-8 Plain Text<br>
Duration : 1 h 20 min<br>
Bit rate : 56 b/s<br>
Frame rate : 0.180 FPS<br>
Count of elements : 871<br>
Stream size : 33.4 KiB (0%)<br>
Language : Danish<br>
Default : No<br>
Forced : No<br>
<br>
Text #5<br>
ID : 17<br>
Format : UTF-8<br>
Codec ID : S_TEXT/UTF8<br>
Codec ID/Info : UTF-8 Plain Text<br>
Duration : 1 h 26 min<br>
Bit rate : 61 b/s<br>
Frame rate : 0.212 FPS<br>
Count of elements : 1098<br>
Stream size : 38.9 KiB (0%)<br>
Language : German<br>
Default : No<br>
Forced : No<br>
<br>
Text #6<br>
ID : 18<br>
Format : UTF-8<br>
Codec ID : S_TEXT/UTF8<br>
Codec ID/Info : UTF-8 Plain Text<br>
Duration : 1 h 20 min<br>
Bit rate : 95 b/s<br>
Frame rate : 0.199 FPS<br>
Count of elements : 965<br>
Stream size : 56.7 KiB (0%)<br>
Language : Greek<br>
Default : No<br>
Forced : No<br>
<br>
Text #7<br>
ID : 19<br>
Format : UTF-8<br>
Codec ID : S_TEXT/UTF8<br>
Codec ID/Info : UTF-8 Plain Text<br>
Duration : 1 h 20 min<br>
Bit rate : 53 b/s<br>
Frame rate : 0.228 FPS<br>
Count of elements : 1107<br>
Stream size : 31.5 KiB (0%)<br>
Title : Latin American<br>
Language : Spanish<br>
Default : No<br>
Forced : No<br>
<br>
Text #8<br>
ID : 20<br>
Format : UTF-8<br>
Codec ID : S_TEXT/UTF8<br>
Codec ID/Info : UTF-8 Plain Text<br>
Duration : 1 h 20 min<br>
Bit rate : 61 b/s<br>
Frame rate : 0.231 FPS<br>
Count of elements : 1120<br>
Stream size : 36.3 KiB (0%)<br>
Title : European<br>
Language : Spanish<br>
Default : No<br>
Forced : No<br>
<br>
Text #9<br>
ID : 21<br>
Format : UTF-8<br>
Codec ID : S_TEXT/UTF8<br>
Codec ID/Info : UTF-8 Plain Text<br>
Duration : 1 h 20 min<br>
Bit rate : 51 b/s<br>
Frame rate : 0.173 FPS<br>
Count of elements : 840<br>
Stream size : 30.7 KiB (0%)<br>
Language : Finnish<br>
Default : No<br>
Forced : No<br>
<br>
Text #10<br>
ID : 22<br>
Format : UTF-8<br>
Codec ID : S_TEXT/UTF8<br>
Codec ID/Info : UTF-8 Plain Text<br>
Duration : 1 h 20 min<br>
Bit rate : 55 b/s<br>
Frame rate : 0.235 FPS<br>
Count of elements : 1139<br>
Stream size : 33.0 KiB (0%)<br>
Language : French<br>
Default : No<br>
Forced : No<br>
<br>
Text #11<br>
ID : 23<br>
Format : UTF-8<br>
Codec ID : S_TEXT/UTF8<br>
Codec ID/Info : UTF-8 Plain Text<br>
Duration : 1 h 26 min<br>
Bit rate : 83 b/s<br>
Frame rate : 0.205 FPS<br>
Count of elements : 1061<br>
Stream size : 52.6 KiB (0%)<br>
Language : Hebrew<br>
Default : No<br>
Forced : No<br>
<br>
Text #12<br>
ID : 24<br>
Format : UTF-8<br>
Codec ID : S_TEXT/UTF8<br>
Codec ID/Info : UTF-8 Plain Text<br>
Duration : 1 h 26 min<br>
Bit rate : 134 b/s<br>
Frame rate : 0.210 FPS<br>
Count of elements : 1092<br>
Stream size : 85.5 KiB (0%)<br>
Language : Hindi<br>
Default : No<br>
Forced : No<br>
<br>
Text #13<br>
ID : 25<br>
Format : UTF-8<br>
Codec ID : S_TEXT/UTF8<br>
Codec ID/Info : UTF-8 Plain Text<br>
Duration : 1 h 26 min<br>
Bit rate : 47 b/s<br>
Frame rate : 0.213 FPS<br>
Count of elements : 1108<br>
Stream size : 30.4 KiB (0%)<br>
Language : Hungarian<br>
Default : No<br>
Forced : No<br>
<br>
Text #14<br>
ID : 26<br>
Format : UTF-8<br>
Codec ID : S_TEXT/UTF8<br>
Codec ID/Info : UTF-8 Plain Text<br>
Duration : 1 h 26 min<br>
Bit rate : 55 b/s<br>
Frame rate : 0.208 FPS<br>
Count of elements : 1083<br>
Stream size : 35.3 KiB (0%)<br>
Language : Indonesian<br>
Default : No<br>
Forced : No<br>
<br>
Text #15<br>
ID : 27<br>
Format : UTF-8<br>
Codec ID : S_TEXT/UTF8<br>
Codec ID/Info : UTF-8 Plain Text<br>
Duration : 1 h 26 min<br>
Bit rate : 63 b/s<br>
Frame rate : 0.207 FPS<br>
Count of elements : 1077<br>
Stream size : 40.5 KiB (0%)<br>
Language : Icelandic<br>
Default : No<br>
Forced : No<br>
<br>
Text #16<br>
ID : 28<br>
Format : UTF-8<br>
Codec ID : S_TEXT/UTF8<br>
Codec ID/Info : UTF-8 Plain Text<br>
Duration : 1 h 20 min<br>
Bit rate : 57 b/s<br>
Frame rate : 0.181 FPS<br>
Count of elements : 879<br>
Stream size : 34.1 KiB (0%)<br>
Language : Italian<br>
Default : No<br>
Forced : No<br>
<br>
Text #17<br>
ID : 29<br>
Format : UTF-8<br>
Codec ID : S_TEXT/UTF8<br>
Codec ID/Info : UTF-8 Plain Text<br>
Duration : 1 h 20 min<br>
Bit rate : 55 b/s<br>
Frame rate : 0.242 FPS<br>
Count of elements : 1172<br>
Stream size : 32.9 KiB (0%)<br>
Language : Japanese<br>
Default : No<br>
Forced : No<br>
<br>
Text #18<br>
ID : 30<br>
Format : UTF-8<br>
Codec ID : S_TEXT/UTF8<br>
Codec ID/Info : UTF-8 Plain Text<br>
Duration : 1 h 20 min<br>
Bit rate : 63 b/s<br>
Frame rate : 0.230 FPS<br>
Count of elements : 1113<br>
Stream size : 37.8 KiB (0%)<br>
Language : Korean<br>
Default : No<br>
Forced : No<br>
<br>
Text #19<br>
ID : 31<br>
Format : UTF-8<br>
Codec ID : S_TEXT/UTF8<br>
Codec ID/Info : UTF-8 Plain Text<br>
Duration : 1 h 26 min<br>
Bit rate : 59 b/s<br>
Frame rate : 0.209 FPS<br>
Count of elements : 1089<br>
Stream size : 38.0 KiB (0%)<br>
Language : Malay<br>
Default : No<br>
Forced : No<br>
<br>
Text #20<br>
ID : 32<br>
Format : UTF-8<br>
Codec ID : S_TEXT/UTF8<br>
Codec ID/Info : UTF-8 Plain Text<br>
Duration : 1 h 20 min<br>
Bit rate : 53 b/s<br>
Frame rate : 0.183 FPS<br>
Count of elements : 887<br>
Stream size : 31.8 KiB (0%)<br>
Language : Norwegian Bokmal<br>
Default : No<br>
Forced : No<br>
<br>
Text #21<br>
ID : 33<br>
Format : UTF-8<br>
Codec ID : S_TEXT/UTF8<br>
Codec ID/Info : UTF-8 Plain Text<br>
Duration : 1 h 20 min<br>
Bit rate : 55 b/s<br>
Frame rate : 0.225 FPS<br>
Count of elements : 1089<br>
Stream size : 33.0 KiB (0%)<br>
Language : Polish<br>
Default : No<br>
Forced : No<br>
<br>
Text #22<br>
ID : 34<br>
Format : UTF-8<br>
Codec ID : S_TEXT/UTF8<br>
Codec ID/Info : UTF-8 Plain Text<br>
Duration : 1 h 20 min<br>
Bit rate : 56 b/s<br>
Frame rate : 0.230 FPS<br>
Count of elements : 1113<br>
Stream size : 33.7 KiB (0%)<br>
Title : Brazilian<br>
Language : Portuguese<br>
Default : No<br>
Forced : No<br>
<br>
Text #23<br>
ID : 35<br>
Format : UTF-8<br>
Codec ID : S_TEXT/UTF8<br>
Codec ID/Info : UTF-8 Plain Text<br>
Duration : 1 h 20 min<br>
Bit rate : 56 b/s<br>
Frame rate : 0.205 FPS<br>
Count of elements : 996<br>
Stream size : 33.2 KiB (0%)<br>
Title : European<br>
Language : Portuguese<br>
Default : No<br>
Forced : No<br>
<br>
Text #24<br>
ID : 36<br>
Format : UTF-8<br>
Codec ID : S_TEXT/UTF8<br>
Codec ID/Info : UTF-8 Plain Text<br>
Duration : 1 h 20 min<br>
Bit rate : 57 b/s<br>
Frame rate : 0.218 FPS<br>
Count of elements : 1059<br>
Stream size : 34.0 KiB (0%)<br>
Language : Romanian<br>
Default : No<br>
Forced : No<br>
<br>
Text #25<br>
ID : 37<br>
Format : UTF-8<br>
Codec ID : S_TEXT/UTF8<br>
Codec ID/Info : UTF-8 Plain Text<br>
Duration : 1 h 20 min<br>
Bit rate : 95 b/s<br>
Frame rate : 0.263 FPS<br>
Count of elements : 1273<br>
Stream size : 56.5 KiB (0%)<br>
Language : Russian<br>
Default : No<br>
Forced : No<br>
<br>
Text #26<br>
ID : 38<br>
Format : UTF-8<br>
Codec ID : S_TEXT/UTF8<br>
Codec ID/Info : UTF-8 Plain Text<br>
Duration : 1 h 20 min<br>
Bit rate : 54 b/s<br>
Frame rate : 0.175 FPS<br>
Count of elements : 849<br>
Stream size : 32.0 KiB (0%)<br>
Language : Swedish<br>
Default : No<br>
Forced : No<br>
<br>
Text #27<br>
ID : 39<br>
Format : UTF-8<br>
Codec ID : S_TEXT/UTF8<br>
Codec ID/Info : UTF-8 Plain Text<br>
Duration : 1 h 27 min<br>
Bit rate : 127 b/s<br>
Frame rate : 0.214 FPS<br>
Count of elements : 1121<br>
Stream size : 81.6 KiB (0%)<br>
Language : Thai<br>
Default : No<br>
Forced : No<br>
<br>
Text #28<br>
ID : 40<br>
Format : UTF-8<br>
Codec ID : S_TEXT/UTF8<br>
Codec ID/Info : UTF-8 Plain Text<br>
Duration : 1 h 26 min<br>
Bit rate : 57 b/s<br>
Frame rate : 0.248 FPS<br>
Count of elements : 1285<br>
Stream size : 36.2 KiB (0%)<br>
Language : Turkish<br>
Default : No<br>
Forced : No<br>
<br>
Text #29<br>
ID : 41<br>
Format : UTF-8<br>
Codec ID : S_TEXT/UTF8<br>
Codec ID/Info : UTF-8 Plain Text<br>
Duration : 1 h 26 min<br>
Bit rate : 90 b/s<br>
Frame rate : 0.210 FPS<br>
Count of elements : 1090<br>
Stream size : 57.5 KiB (0%)<br>
Language : Ukrainian<br>
Default : No<br>
Forced : No<br>
<br>
Text #30<br>
ID : 42<br>
Format : UTF-8<br>
Codec ID : S_TEXT/UTF8<br>
Codec ID/Info : UTF-8 Plain Text<br>
Duration : 1 h 26 min<br>
Bit rate : 69 b/s<br>
Frame rate : 0.210 FPS<br>
Count of elements : 1090<br>
Stream size : 43.9 KiB (0%)<br>
Language : Vietnamese<br>
Default : No<br>
Forced : No<br>
<br>
Text #31<br>
ID : 43<br>
Format : UTF-8<br>
Codec ID : S_TEXT/UTF8<br>
Codec ID/Info : UTF-8 Plain Text<br>
Duration : 1 h 20 min<br>
Bit rate : 49 b/s<br>
Frame rate : 0.224 FPS<br>
Count of elements : 1086<br>
Stream size : 29.4 KiB (0%)<br>
Title : Simplified<br>
Language : Chinese<br>
Default : No<br>
Forced : No<br>
<br>
Text #32<br>
ID : 44<br>
Format : UTF-8<br>
Codec ID : S_TEXT/UTF8<br>
Codec ID/Info : UTF-8 Plain Text<br>
Duration : 1 h 20 min<br>
Bit rate : 50 b/s<br>
Frame rate : 0.224 FPS<br>
Count of elements : 1086<br>
Stream size : 30.0 KiB (0%)<br>
Title : Traditional<br>
Language : Chinese<br>
Default : No<br>
Forced : No<br>
<br>
Menu<br>
00:00:00.000 : en<img src="styles/default/xenforo/smilies/grimace-48.png" class="mceSmilie" alt=":p" title="Stick Out Tongue    :p">art 01<br>
01:23:22.450 : en:Credits</div>
</div><br>
<b>Screenshots</b><br>
<img src="https://i.imgur.com/jYFv9FP.png" class="bbCodeImage LbImage" alt="[​IMG]" data-url="https://i.imgur.com/jYFv9FP.png" style=""><br>
<br>
<b>Download</b><br>
<div class="bbCodeBlock bbCodeVfcHH HiddenContent">
<div class="attribution type">Hidden Content:</div>
<blockquote>You must reply before you can see the hidden data contained here.</blockquote>
</div></div>
<div class="messageTextEndMarker">&nbsp;</div>
</blockquote>
</article>]]></description>
                <author><![CDATA[Samuel]]></author>
                </item>

                
                <item>
                <title><![CDATA[【DVD】DVD5 - CHIQUITITAS GRAN REX 2006 DVD ISO]]></title>
                <link><![CDATA[https://sharemania.us/threads/chiquititas-gran-rex-2006-dvd-iso.232164/]]></link>
                <description><![CDATA[<article>
<blockquote class="messageText SelectQuoteContainer ugc baseHtml">
<img src="https://http2.mlstatic.com/D_NQ_NP_988961-MLA49677067016_042022-O.webp" class="bbCodeImage LbImage" alt="[​IMG]" data-url="https://http2.mlstatic.com/D_NQ_NP_988961-MLA49677067016_042022-O.webp" style=""><br>
<img src="http://photos1.blogger.com/x/blogger/1750/3154/400/747424/Menu%20DVD.jpg" class="bbCodeImage LbImage" alt="[​IMG]" data-url="http://photos1.blogger.com/x/blogger/1750/3154/400/747424/Menu%20DVD.jpg" style=""><br>
<br>
<br>
<br>
<br>
<br>
<b>CARACTERISTICAS DEL DVD: <br>
AUDIO: ESPAÑOL 2.0<br>
MENU: SI <br>
EXTRAS : MAKING OF 32 MINUTOS <br>
SHOW : 73 MINUTOS<br>
EXTRAIDO DE MI DVD ORIGINAL <br>
DVD ISO :4,10 GB</b><br>
<br>
<br>
<div class="bbCodeBlock bbCodeVfcHH HiddenContent">
<div class="attribution type">Hidden Content:</div>
<blockquote>You must either reply or click 'Like' to see the hidden information contained here.</blockquote>
</div>
<div class="messageTextEndMarker">&nbsp;</div>
</blockquote>
</article>]]></description>
                <author><![CDATA[Nepe1]]></author>
                </item>

                </channel></rss>